<?xml version="1.0" standalone="no"?>
<!DOCTYPE svg PUBLIC "-//W3C//DTD SVG 20010904//EN"
 "http://www.w3.org/TR/2001/REC-SVG-20010904/DTD/svg10.dtd">
<svg version="1.0" xmlns="http://www.w3.org/2000/svg"
 width="905.000000pt" height="905.000000pt" viewBox="0 0 905.000000 905.000000"
 preserveAspectRatio="xMidYMid meet">
<metadata>
Created by potrace 1.11, written by Peter Selinger 2001-2013
</metadata>
<g transform="translate(0.000000,905.000000) scale(0.100000,-0.100000)"
fill="#000000" stroke="none">
<path d="M4260 9044 c-199 -17 -289 -27 -380 -40 -824 -119 -1604 -466 -2245
-998 -142 -119 -383 -353 -501 -487 -583 -663 -959 -1469 -1084 -2324 -32
-216 -40 -319 -47 -565 -31 -1238 442 -2421 1321 -3302 684 -686 1579 -1138
2531 -1278 216 -32 319 -40 565 -47 1238 -31 2421 442 3302 1321 686 684 1138
1579 1278 2531 60 410 65 841 14 1240 -126 988 -557 1877 -1254 2589 -365 372
-739 648 -1190 876 -518 261 -1008 405 -1605 470 -100 11 -620 21 -705 14z
m-182 -3369 c1 -203 -2 -462 -7 -574 -6 -113 -9 -206 -7 -208 1 -2 34 22 72
53 93 75 281 167 397 195 267 64 559 -8 744 -184 163 -155 247 -325 293 -592
25 -144 27 -396 5 -530 -68 -418 -310 -741 -645 -857 -294 -102 -589 -38 -849
185 -30 26 -58 47 -62 47 -3 0 -12 -28 -18 -62 -7 -35 -16 -87 -22 -115 l-10
-53 -200 0 -199 0 0 1528 c0 841 3 1532 7 1536 4 3 117 5 252 4 l246 -3 3
-370z m3222 -792 c0 -671 5 -1199 10 -1241 25 -191 137 -290 341 -300 107 -5
193 7 307 43 43 13 81 25 87 25 11 1 125 -352 116 -362 -11 -12 -284 -88 -370
-103 -119 -21 -325 -19 -436 4 -325 67 -505 293 -545 682 -6 62 -10 471 -10
1060 l0 959 -335 0 -335 0 0 200 0 200 585 0 585 0 0 -1167z m-5211 276 c186
-17 364 -79 494 -173 81 -57 196 -179 239 -253 124 -210 171 -491 131 -780
l-6 -43 -773 0 -774 0 0 -27 c0 -56 31 -157 70 -232 78 -149 199 -242 390
-303 68 -21 93 -23 265 -22 177 0 196 2 278 27 48 15 137 50 198 79 60 28 111
49 114 47 2 -3 41 -72 85 -153 94 -173 101 -148 -65 -230 -411 -203 -880 -222
-1242 -51 -286 135 -490 374 -568 667 -84 315 -42 671 111 918 135 219 303
362 532 454 122 49 217 70 392 85 8 0 66 -4 129 -10z"/>
<path d="M4455 4735 c-115 -31 -213 -88 -313 -179 l-62 -58 0 -484 0 -484 52
-41 c139 -110 350 -169 503 -140 195 36 342 186 404 409 31 114 44 296 31 438
-29 318 -136 484 -345 539 -72 18 -202 19 -270 0z"/>
<path d="M1905 4773 c-170 -22 -353 -142 -432 -283 -29 -50 -62 -142 -77 -212
l-6 -28 561 0 560 0 -6 58 c-22 206 -106 346 -250 416 -90 44 -236 64 -350 49z"/>
</g>
</svg>
